<svg width="30" height="30" viewBox="0 0 30 30" fill="none" xmlns="http://www.w3.org/2000/svg">
<path d="M4.28571 0C2.14286 0 0 2.14286 0 4.28571V25.7143C0 27.8571 2.14286 30 4.28571 30H25.7143C27.8571 30 30 27.8571 30 25.7143V4.28571C30 2.14286 27.8571 0 25.7143 0H4.28571Z" fill="#20B2AA"/>
<path d="M5.29289 14.2929C4.90237 14.6834 4.90237 15.3166 5.29289 15.7071L11.6569 22.0711C12.0474 22.4616 12.6805 22.4616 13.0711 22.0711C13.4616 21.6805 13.4616 21.0474 13.0711 20.6569L7.41421 15L13.0711 9.34315C13.4616 8.95262 13.4616 8.31946 13.0711 7.92893C12.6805 7.53841 12.0474 7.53841 11.6569 7.92893L5.29289 14.2929ZM24 16C24.5523 16 25 15.5523 25 15C25 14.4477 24.5523 14 24 14V16ZM6 16H24V14H6V16Z" fill="#F7F7F7"/>
</svg>
