<svg width="30" height="30" viewBox="0 0 30 30" fill="none" xmlns="http://www.w3.org/2000/svg">
<path d="M4.28571 0C2.14286 0 0 2.14286 0 4.28571V25.7143C0 27.8571 2.14286 30 4.28571 30H25.7143C27.8571 30 30 27.8571 30 25.7143V4.28571C30 2.14286 27.8571 0 25.7143 0H4.28571Z" fill="#20B2AA"/>
<path d="M6.44238 10.1973H7.84375V18.5986H13.4424V10.1973H14.8438V18.5986C14.8438 18.79 14.8073 18.9723 14.7344 19.1455C14.6615 19.3141 14.5612 19.4622 14.4336 19.5898C14.306 19.7174 14.1556 19.8177 13.9824 19.8906C13.8138 19.9635 13.6338 20 13.4424 20H7.84375C7.65234 20 7.47005 19.9635 7.29688 19.8906C7.12826 19.8177 6.98014 19.7174 6.85254 19.5898C6.72493 19.4622 6.62467 19.3141 6.55176 19.1455C6.47884 18.9723 6.44238 18.79 6.44238 18.5986V10.1973ZM17.3662 20V10.1973H22.7324C24.3184 10.1973 25.1113 10.9925 25.1113 12.583V13.9775C25.1113 15.568 24.3184 16.3633 22.7324 16.3633H18.7676V20H17.3662ZM18.7676 14.9619H22.6572C23.0309 14.9619 23.2998 14.8799 23.4639 14.7158C23.6279 14.5518 23.71 14.2829 23.71 13.9092V12.6514C23.71 12.2777 23.6279 12.0088 23.4639 11.8447C23.2998 11.6807 23.0309 11.5986 22.6572 11.5986H18.7676V14.9619Z" fill="white"/>
</svg>
