<svg width="30" height="30" viewBox="0 0 30 30" fill="none" xmlns="http://www.w3.org/2000/svg">
<rect width="30" height="30" rx="5" fill="#20b2aa"/>
<path d="M14 24C14 24.5523 14.4477 25 15 25C15.5523 25 16 24.5523 16 24H14ZM15.7071 6.29289C15.3166 5.90237 14.6834 5.90237 14.2929 6.29289L7.92893 12.6569C7.53841 13.0474 7.53841 13.6805 7.92893 14.0711C8.31946 14.4616 8.95262 14.4616 9.34315 14.0711L15 8.41421L20.6569 14.0711C21.0474 14.4616 21.6805 14.4616 22.0711 14.0711C22.4616 13.6805 22.4616 13.0474 22.0711 12.6569L15.7071 6.29289ZM16 24V7H14L14 24H16Z" fill="#f7f7f7"/>
</svg>
